# xmcd
#
# Track frame offsets:
#	150
#	23200
#	33995
#	56253
#	76133
#	93398
#	112125
#	127138
#	136428
#	148533
#	170383
#	192058
#	204755
#	219895
#	236363
#
# Disc length: 3488 seconds
#
# Revision: 0
# Processed by: cddbd v1.5.2PL0 Copyright (c) Steve Scherf et al.
# Submitted via: audiograbber 1.83.01
#
DISCID=c40d9e0f
DTITLE=The Cranberries - To The Faithful Departed
DYEAR=1996
DGENRE=Rock
TTITLE0=Hollywood
TTITLE1=Salvation
TTITLE2=When You're Gone
TTITLE3=Free To Decide
TTITLE4=War Child
TTITLE5=Forever Yellow Skies
TTITLE6=The Rebels
TTITLE7=Intermission
TTITLE8=I Just Shot John Lennon
TTITLE9=Electric Blue
TTITLE10=I'm Still Remembering
TTITLE11=Will You Remember?
TTITLE12=Joe
TTITLE13=Cordell
TTITLE14=Bosnia
EXTD=
EXTT0=
EXTT1=
EXTT2=
EXTT3=
EXTT4=
EXTT5=
EXTT6=
EXTT7=
EXTT8=
EXTT9=
EXTT10=
EXTT11=
EXTT12=
EXTT13=
EXTT14=
PLAYORDER=
